<?xml version="1.0" encoding="UTF-8" standalone="no"?>
<svg
   xmlns:dc="http://purl.org/dc/elements/1.1/"
   xmlns:cc="http://creativecommons.org/ns#"
   xmlns:rdf="http://www.w3.org/1999/02/22-rdf-syntax-ns#"
   xmlns:svg="http://www.w3.org/2000/svg"
   xmlns="http://www.w3.org/2000/svg"
   xmlns:sodipodi="http://sodipodi.sourceforge.net/DTD/sodipodi-0.dtd"
   xmlns:inkscape="http://www.inkscape.org/namespaces/inkscape"
   width="100%"
   height="100%"
   viewBox="0 0 849 242"
   version="1.1"
   xml:space="preserve"
   style="fill-rule:evenodd;clip-rule:evenodd;stroke-linecap:round;stroke-linejoin:round;stroke-miterlimit:1.5;"
   id="svg32"
   sodipodi:docname="s2-syssec-new.svg"
   inkscape:version="1.0.1 (c497b03c, 2020-09-10)"><metadata
   id="metadata38"><rdf:RDF><cc:Work
       rdf:about=""><dc:format>image/svg+xml</dc:format><dc:type
         rdf:resource="http://purl.org/dc/dcmitype/StillImage" /><dc:title></dc:title></cc:Work></rdf:RDF></metadata><defs
   id="defs36" /><sodipodi:namedview
   pagecolor="#ffffff"
   bordercolor="#666666"
   borderopacity="1"
   objecttolerance="10"
   gridtolerance="10"
   guidetolerance="10"
   inkscape:pageopacity="0"
   inkscape:pageshadow="2"
   inkscape:window-width="1792"
   inkscape:window-height="1067"
   id="namedview34"
   showgrid="false"
   inkscape:zoom="0.88103651"
   inkscape:cx="424.5"
   inkscape:cy="121"
   inkscape:window-x="0"
   inkscape:window-y="244"
   inkscape:window-maximized="0"
   inkscape:current-layer="svg32" />
    <g
   transform="matrix(1,0,0,1,-103.545,-94.4091)"
   id="g30">
        <g
   transform="matrix(1,0,0,1,-3.40348,6.52085)"
   id="g12">
            
        </g>
        <g
   transform="matrix(1.05823,0,0,1,-34.6826,72.851)"
   id="g18">
            <g
   aria-label="SYSTEMS"
   id="text16"
   style="font-weight:500;font-size:138px;font-family:AvenirNext-Medium, 'Avenir Next', sans-serif;fill:#ffffff" />
        </g>
        <g
   transform="matrix(1,0,0,1,-16.2499,193.096)"
   id="g24">
            <g
   aria-label="SECURITY"
   id="text22"
   style="font-weight:500;font-size:138px;font-family:AvenirNext-Medium, 'Avenir Next', sans-serif;fill:#ffffff" />
        </g>
        <g
   transform="matrix(1.00345,0,0,1,-0.956803,0)"
   id="g28">
            <path
   id="rect26"
   style="fill:#ffffff"
   d="m 277.513,95.334 h 5.289 v 241.004 h -5.289 z m 635.4522,230.84 H 899.21265 V 283.946 L 862.76838,228.47 h 16.77812 l 26.955,44.16 27.09253,-44.16 h 15.81544 l -36.44427,55.476 z m -80.23757,0 H 819.1126 V 240.476 H 787.89431 V 228.47 h 76.05162 v 12.006 h -31.2183 z m -57.82734,0 H 761.28526 V 228.47 h 13.61503 z m -84.34183,0 H 676.94343 V 228.47 h 31.2183 q 7.0138,0 13.33997,1.518 6.32618,1.38 11.00205,4.554 4.81339,3.174 7.5639,8.418 2.75051,5.106 2.75051,12.558 0,10.764 -6.60123,17.388 -6.60122,6.624 -17.05316,8.418 l 27.23005,44.85 h -16.50306 l -24.7546,-43.47 h -14.5777 z m 0,-54.924 h 15.67791 q 4.81339,0 8.93916,-0.828 4.12576,-0.828 7.15133,-2.622 3.16308,-1.932 4.95091,-4.83 1.78784,-3.036 1.78784,-7.452 0,-4.416 -1.78784,-7.314 -1.78783,-3.036 -4.81339,-4.83 -2.88804,-1.794 -6.87628,-2.484 -3.98824,-0.828 -8.38905,-0.828 h -16.64059 z m -74.52381,57.408 q -9.62678,0 -16.77811,-3.174 -7.15133,-3.312 -11.8272,-8.694 -4.67587,-5.382 -7.0138,-12.282 -2.20041,-7.038 -2.20041,-14.49 V 228.47 h 13.61503 v 60.72 q 0,4.968 1.23773,9.936 1.23773,4.83 3.98824,8.694 2.88804,3.864 7.42638,6.21 4.67587,2.346 11.55214,2.346 6.73875,0 11.41462,-2.346 4.67587,-2.346 7.42638,-6.21 2.88804,-3.864 4.12577,-8.694 1.23773,-4.968 1.23773,-9.936 v -60.72 h 13.61503 v 61.548 q 0,7.452 -2.33794,14.49 -2.20041,6.9 -6.87627,12.282 -4.67587,5.382 -11.8272,8.694 -7.15133,3.174 -16.77812,3.174 z m -51.15734,-17.664 q -5.77608,7.866 -14.99029,12.834 -9.21421,4.83 -22.14161,4.83 -11.13957,0 -20.62883,-3.726 -9.35174,-3.864 -16.22801,-10.626 -6.73875,-6.9 -10.58947,-16.284 -3.85071,-9.522 -3.85071,-20.838 0,-11.454 3.85071,-20.838 3.98824,-9.522 10.86452,-16.146 7.0138,-6.762 16.50306,-10.488 9.48926,-3.726 20.62883,-3.726 4.95092,0 10.03937,0.966 5.08844,0.966 9.76431,2.898 4.67587,1.932 8.52658,4.83 3.85072,2.76 6.60123,6.486 l -10.72699,8.28 q -3.57567,-4.968 -10.17689,-8.142 -6.4637,-3.312 -14.02761,-3.312 -8.52658,0 -15.40286,3.174 -6.73875,3.036 -11.55214,8.418 -4.8134,5.382 -7.42638,12.558 -2.61299,7.038 -2.61299,15.042 0,8.28 2.47546,15.456 2.61299,7.176 7.28886,12.558 4.81339,5.244 11.55214,8.28 6.87628,3.036 15.26534,3.036 8.25153,0 14.99028,-3.312 6.73875,-3.312 11.13957,-9.66 z m -152.59319,3.036 h 50.88445 v 12.144 H 398.66909 V 228.47 h 62.4366 v 12.006 h -48.82157 v 29.256 h 45.93353 v 11.73 h -45.93353 z m -43.36996,-67.482 q -2.88804,-4.002 -7.83896,-6.486 -4.95092,-2.622 -11.13956,-2.622 -3.30062,0 -6.73876,0.966 -3.30061,0.828 -6.05112,2.898 -2.75051,1.932 -4.53834,4.968 -1.65031,2.898 -1.65031,7.038 0,4.002 1.51278,6.762 1.65031,2.622 4.26329,4.554 2.75051,1.794 6.32618,3.174 3.71319,1.242 7.83895,2.622 4.95092,1.518 10.03937,3.45 5.08844,1.932 9.21421,5.106 4.12577,3.174 6.73875,8.004 2.61299,4.692 2.61299,12.006 0,7.59 -2.88804,13.248 -2.75051,5.52 -7.42638,9.246 -4.67587,3.588 -10.86452,5.382 -6.05112,1.794 -12.51482,1.794 -9.21421,0 -17.87832,-3.588 -8.52658,-3.588 -14.16513,-10.626 l 10.58947,-8.97 q 3.43813,5.106 9.21421,8.28 5.77607,3.174 12.51482,3.174 3.43814,0 6.87628,-0.966 3.43814,-0.966 6.18865,-3.036 2.88803,-2.07 4.67586,-5.106 1.78784,-3.174 1.78784,-7.59 0,-4.416 -1.92536,-7.314 -1.78783,-3.036 -4.95092,-5.106 -3.16309,-2.07 -7.42638,-3.45 -4.12577,-1.518 -8.80163,-3.036 -4.67587,-1.38 -9.21421,-3.312 -4.53835,-2.07 -8.11401,-5.106 -3.57567,-3.174 -5.77607,-7.728 -2.20041,-4.554 -2.20041,-11.316 0,-7.314 2.88803,-12.558 3.02557,-5.244 7.70143,-8.694 4.8134,-3.45 10.727,-4.968 6.05112,-1.656 12.10224,-1.656 8.52659,0 15.95297,3.036 7.42637,3.036 11.96472,8.142 z M 931.02204,126.303 q -3.05621,-4.002 -8.29542,-6.486 -5.23921,-2.622 -11.78823,-2.622 -3.4928,0 -7.13115,0.966 -3.4928,0.828 -6.40348,2.898 -2.91067,1.932 -4.80261,4.968 -1.7464,2.898 -1.7464,7.038 0,4.002 1.60087,6.762 1.7464,2.622 4.51154,4.554 2.91068,1.794 6.69455,3.174 3.92941,1.242 8.29542,2.622 5.23921,1.518 10.62395,3.45 5.38475,1.932 9.75076,5.106 4.36601,3.174 7.13115,8.004 2.76514,4.692 2.76514,12.006 0,7.59 -3.05621,13.248 -2.91067,5.52 -7.85882,9.246 -4.94814,3.588 -11.49715,5.382 -6.40349,1.794 -13.24357,1.794 -9.75075,0 -18.91937,-3.588 -9.02309,-3.588 -14.98997,-10.626 l 11.20609,-8.97 q 3.63835,5.106 9.75076,8.28 6.11241,3.174 13.24356,3.174 3.63834,0 7.27668,-0.966 3.63834,-0.966 6.54902,-3.036 3.0562,-2.07 4.94814,-5.106 1.89194,-3.174 1.89194,-7.59 0,-4.416 -2.03747,-7.314 -1.89194,-3.036 -5.23921,-5.106 -3.34728,-2.07 -7.85882,-3.45 -4.36601,-1.518 -9.31415,-3.036 -4.94815,-1.38 -9.75076,-3.312 -4.80261,-2.07 -8.58648,-5.106 -3.78388,-3.174 -6.11242,-7.728 -2.32854,-4.554 -2.32854,-11.316 0,-7.314 3.05621,-12.558 3.20174,-5.244 8.14989,-8.694 5.09367,-3.45 11.35162,-4.968 6.40348,-1.656 12.80696,-1.656 9.02309,0 16.8819,3.036 7.85882,3.036 12.66143,8.142 z m -129.28391,56.994 h 0.29106 l 30.41654,-75.072 h 22.41218 v 97.704 h -14.40783 v -81.696 h -0.29107 l -34.20041,81.696 h -9.16862 l -34.05487,-81.696 h -0.29107 v 81.696 h -13.97123 v -97.704 h 22.41218 z m -126.40507,10.488 h 53.84745 v 12.144 h -68.25528 v -97.704 h 66.07228 v 12.006 h -51.66445 v 29.256 h 48.60824 v 11.73 h -48.60824 z m -61.1241,12.144 h -14.40783 v -85.698 h -33.03614 v -12.006 h 80.48011 v 12.006 H 614.20896 Z M 546.5358,126.303 q -3.0562,-4.002 -8.29541,-6.486 -5.23922,-2.622 -11.78823,-2.622 -3.49281,0 -7.13115,0.966 -3.49281,0.828 -6.40348,2.898 -2.91067,1.932 -4.80261,4.968 -1.7464,2.898 -1.7464,7.038 0,4.002 1.60087,6.762 1.7464,2.622 4.51154,4.554 2.91067,1.794 6.69455,3.174 3.92941,1.242 8.29542,2.622 5.23921,1.518 10.62395,3.45 5.38475,1.932 9.75076,5.106 4.36601,3.174 7.13114,8.004 2.76514,4.692 2.76514,12.006 0,7.59 -3.0562,13.248 -2.91068,5.52 -7.85882,9.246 -4.94814,3.588 -11.49716,5.382 -6.40348,1.794 -13.24356,1.794 -9.75075,0 -18.91937,-3.588 -9.02309,-3.588 -14.98997,-10.626 l 11.20609,-8.97 q 3.63834,5.106 9.75076,8.28 6.11241,3.174 13.24356,3.174 3.63834,0 7.27668,-0.966 3.63834,-0.966 6.54901,-3.036 3.05621,-2.07 4.94815,-5.106 1.89194,-3.174 1.89194,-7.59 0,-4.416 -2.03748,-7.314 -1.89193,-3.036 -5.23921,-5.106 -3.34727,-2.07 -7.85881,-3.45 -4.36601,-1.518 -9.31416,-3.036 -4.94814,-1.38 -9.75075,-3.312 -4.80261,-2.07 -8.58649,-5.106 -3.78387,-3.174 -6.11241,-7.728 -2.32854,-4.554 -2.32854,-11.316 0,-7.314 3.05621,-12.558 3.20174,-5.244 8.14988,-8.694 5.09368,-3.45 11.35163,-4.968 6.40348,-1.656 12.80696,-1.656 9.02308,0 16.8819,3.036 7.85882,3.036 12.66143,8.142 z m -105.09348,79.626 h -14.55337 v -42.228 l -38.56641,-55.476 h 17.7551 l 28.5246,44.16 28.67012,-44.16 h 16.73637 l -38.56641,55.476 z m -68.52816,-79.626 q -3.05621,-4.002 -8.29542,-6.486 -5.23921,-2.622 -11.78822,-2.622 -3.49281,0 -7.13115,0.966 -3.49281,0.828 -6.40348,2.898 -2.91068,1.932 -4.80261,4.968 -1.74641,2.898 -1.74641,7.038 0,4.002 1.60087,6.762 1.74641,2.622 4.51155,4.554 2.91067,1.794 6.69454,3.174 3.92941,1.242 8.29542,2.622 5.23921,1.518 10.62396,3.45 5.38474,1.932 9.75075,5.106 4.36601,3.174 7.13115,8.004 2.76514,4.692 2.76514,12.006 0,7.59 -3.05621,13.248 -2.91067,5.52 -7.85881,9.246 -4.94815,3.588 -11.49716,5.382 -6.40348,1.794 -13.24356,1.794 -9.75076,0 -18.91938,-3.588 -9.02308,-3.588 -14.98996,-10.626 l 11.20609,-8.97 q 3.63834,5.106 9.75075,8.28 6.11242,3.174 13.24356,3.174 3.63835,0 7.27669,-0.966 3.63834,-0.966 6.54901,-3.036 3.05621,-2.07 4.94815,-5.106 1.89193,-3.174 1.89193,-7.59 0,-4.416 -2.03747,-7.314 -1.89194,-3.036 -5.23921,-5.106 -3.34727,-2.07 -7.85882,-3.45 -4.36601,-1.518 -9.31415,-3.036 -4.94814,-1.38 -9.75075,-3.312 -4.80262,-2.07 -8.58649,-5.106 -3.78388,-3.174 -6.11241,-7.728 -2.32854,-4.554 -2.32854,-11.316 0,-7.314 3.0562,-12.558 3.20175,-5.244 8.14989,-8.694 5.09368,-3.45 11.35162,-4.968 6.40348,-1.656 12.80696,-1.656 9.02309,0 16.88191,3.036 7.85882,3.036 12.66143,8.142 z m -224.34042,78.59585 18.90279,-13.511 c 0,0 -28.01634,-20.337 -29.10758,-40.373 -1.08625,-19.933 11.40166,-31.853 33.31506,-32.328 21.65729,-0.471 35.35901,10.495 35.19458,30.833 -0.16642,20.657 -33.96083,44.883 -44.35896,52.542 -10.39813,7.659 -23.58962,15.773 -39.19777,31.327 0,0 -9.69953,10.145 -14.94843,23.898 -5.24889,13.753 -3.42717,29.958 -3.42717,29.958 0,0 48.5226,3.048 71.79431,2.527 23.13219,-0.518 38.71443,-1.019 38.71443,-1.019 0,0 -12.61149,23.466 -38.88983,24.053 -26.27834,0.587 -38.8679,-18.451 -38.8679,-18.451 l -32.27466,-1.824 c 0,0 17.15582,42.461 67.08755,42.706 50.83761,0.249 71.27411,-47.059 71.27411,-47.059 l 11.37874,-1.283 c 0,0 0.8122,-5.424 0.36674,-11.858 -0.45643,-6.599 -2.40272,-11.293 -2.40272,-11.293 0,0 -47.42139,4.109 -76.36254,3.453 -27.97848,-0.634 -46.77862,-1.84 -46.77862,-1.84 0,0 4.74164,-11.267 18.03478,-23.977 13.95187,-13.339 24.0002,-18.182 24.0002,-18.182 0,0 18.74832,12.624 33.02905,28.046 7.69445,8.309 8.4927,10.265 8.4927,10.265 l 28.19473,-1.519 c 0,0 -6.40291,-8.308 -15.89217,-19.558 -9.49026,-11.25 -32.97026,-31.965 -32.97026,-31.965 0,0 36.56187,-30.576 37.05516,-61.262 0.53117,-33.089 -26.58627,-52.278 -57.64113,-52.296 -30.97813,-0.017 -58.12846,21.947 -58.16035,51.819 -0.0209,20.266 9.66765,32.278 13.46953,37.449 6.66799,9.07 20.97563,20.722 20.97563,20.722 z" />
        </g>
    </g>
</svg>
