<?xml version="1.0" encoding="UTF-8" standalone="no"?>
<!DOCTYPE svg PUBLIC "-//W3C//DTD SVG 1.1//EN" "http://www.w3.org/Graphics/SVG/1.1/DTD/svg11.dtd">
<svg width="100%" height="100%" viewBox="0 0 849 242" version="1.1" xmlns="http://www.w3.org/2000/svg" xmlns:xlink="http://www.w3.org/1999/xlink" xml:space="preserve" xmlns:serif="http://www.serif.com/" style="fill-rule:evenodd;clip-rule:evenodd;stroke-linecap:round;stroke-linejoin:round;stroke-miterlimit:1.5;">
    <g transform="matrix(1,0,0,1,-103.545,-94.4091)">
        <g transform="matrix(1,0,0,1,-3.40348,6.52085)">
            <path d="M151.533,198.378L170.501,184.867C170.501,184.867 142.388,164.53 141.293,144.494C140.203,124.561 152.734,112.641 174.723,112.166C196.455,111.695 210.204,122.661 210.039,142.999C209.872,163.656 175.961,187.882 165.527,195.541C155.093,203.2 141.856,211.314 126.194,226.868C126.194,226.868 116.461,237.013 111.194,250.766C105.927,264.519 107.755,280.724 107.755,280.724C107.755,280.724 156.445,283.772 179.797,283.251C203.009,282.733 218.645,282.232 218.645,282.232C218.645,282.232 205.99,305.698 179.621,306.285C153.252,306.872 140.619,287.834 140.619,287.834L108.233,286.01C108.233,286.01 125.448,328.471 175.552,328.716C226.565,328.965 247.072,281.657 247.072,281.657L258.49,280.374C258.49,280.374 259.305,274.95 258.858,268.516C258.4,261.917 256.447,257.223 256.447,257.223C256.447,257.223 208.862,261.332 179.821,260.676C151.746,260.042 132.881,258.836 132.881,258.836C132.881,258.836 137.639,247.569 150.978,234.859C164.978,221.52 175.061,216.677 175.061,216.677C175.061,216.677 193.874,229.301 208.204,244.723C215.925,253.032 216.726,254.988 216.726,254.988L245.018,253.469C245.018,253.469 238.593,245.161 229.071,233.911C219.548,222.661 195.987,201.946 195.987,201.946C195.987,201.946 232.675,171.37 233.17,140.684C233.703,107.595 206.492,88.406 175.33,88.388C144.245,88.371 117.001,110.335 116.969,140.207C116.948,160.473 126.67,172.485 130.485,177.656C137.176,186.726 151.533,198.378 151.533,198.378Z" style="fill:white;stroke:white;stroke-width:1px;"/>
        </g>
        <g transform="matrix(1.05823,0,0,1,-34.6826,72.851)">
            <text x="325.036px" y="133.078px" style="font-family:'AvenirNext-Medium', 'Avenir Next', sans-serif;font-weight:500;font-size:138px;fill:white;">SY<tspan x="489.67px 568.192px 646.714px " y="133.078px 133.078px 133.078px ">STE</tspan>MS</text>
        </g>
        <g transform="matrix(1,0,0,1,-16.2499,193.096)">
            <text x="325.036px" y="133.078px" style="font-family:'AvenirNext-Medium', 'Avenir Next', sans-serif;font-weight:500;font-size:138px;fill:white;">SECURIT<tspan x="881.452px " y="133.078px ">Y</tspan></text>
        </g>
        <g transform="matrix(1.00345,0,0,1,-0.956803,0)">
            <rect x="277.513" y="95.334" width="5.289" height="241.004" style="fill:white;"/>
        </g>
    </g>
</svg>
