<?xml version="1.0" encoding="utf-8"?>
<!-- Generator: Adobe Illustrator 18.0.0, SVG Export Plug-In . SVG Version: 6.00 Build 0)  -->
<!DOCTYPE svg PUBLIC "-//W3C//DTD SVG 1.1//EN" "http://www.w3.org/Graphics/SVG/1.1/DTD/svg11.dtd">
<svg version="1.1" id="Layer_1" xmlns="http://www.w3.org/2000/svg" xmlns:xlink="http://www.w3.org/1999/xlink" x="0px" y="0px"
	 viewBox="0 0 2000 2000" enable-background="new 0 0 2000 2000" xml:space="preserve">
<g>
	<path fill="#FFFFFF" d="M562.2,855.7c5.1,7.3,11.6,12.7,19.5,16.2c7.9,3.5,16.1,5.2,24.5,5.2c4.7,0,9.5-0.7,14.4-2.1
		c4.9-1.4,9.3-3.5,13.3-6.3c4-2.8,7.3-6.3,9.8-10.4c2.5-4.1,3.8-8.9,3.8-14.4c0-7.7-2.5-13.6-7.6-17.6c-5.1-4-11.4-7.4-18.9-10.1
		c-7.5-2.7-15.7-5.4-24.6-7.9c-8.9-2.5-17.1-6.1-24.6-10.6c-7.5-4.5-13.8-10.6-18.9-18.2c-5.1-7.6-7.6-17.9-7.6-30.8
		c0-5.8,1.3-12,4-18.6c2.6-6.6,6.8-12.6,12.5-18c5.7-5.4,13-10,21.9-13.7c8.9-3.7,19.6-5.5,32.1-5.5c11.3,0,22.2,1.5,32.6,4.5
		c10.4,3,19.5,9.1,27.3,18.3l-22.9,20c-3.5-5.3-8.5-9.5-15-12.7c-6.5-3.2-13.8-4.8-22-4.8c-7.8,0-14.3,1-19.5,3
		c-5.2,2-9.3,4.5-12.5,7.6c-3.1,3.1-5.3,6.4-6.6,10c-1.3,3.6-1.9,6.9-1.9,9.9c0,8.5,2.5,14.9,7.6,19.4c5.1,4.5,11.4,8.2,18.9,11
		c7.5,2.8,15.7,5.4,24.6,7.6c8.9,2.3,17.1,5.4,24.6,9.4c7.5,4,13.8,9.5,18.9,16.3c5.1,6.9,7.6,16.3,7.6,28.3
		c0,9.6-1.9,18.2-5.7,25.9c-3.8,7.7-8.9,14.2-15.4,19.4c-6.5,5.3-14.1,9.3-22.9,12.1c-8.8,2.8-18.2,4.2-28.2,4.2
		c-13.3,0-25.9-2.3-37.8-6.8c-11.9-4.5-21.4-11.5-28.5-20.8L562.2,855.7z"/>
	<path fill="#FFFFFF" d="M768.1,812.3L689.5,698h36.1l56.6,87.6l58.4-87.6h34.3l-78.6,114.4v85.1h-28.2V812.3z"/>
	<path fill="#FFFFFF" d="M904.8,855.7c5.1,7.3,11.6,12.7,19.5,16.2c7.9,3.5,16.1,5.2,24.5,5.2c4.7,0,9.5-0.7,14.4-2.1
		c4.9-1.4,9.3-3.5,13.3-6.3c4-2.8,7.3-6.3,9.8-10.4c2.5-4.1,3.8-8.9,3.8-14.4c0-7.7-2.5-13.6-7.6-17.6c-5.1-4-11.4-7.4-18.9-10.1
		c-7.5-2.7-15.7-5.4-24.6-7.9c-8.9-2.5-17.1-6.1-24.6-10.6c-7.5-4.5-13.8-10.6-18.9-18.2c-5.1-7.6-7.6-17.9-7.6-30.8
		c0-5.8,1.3-12,4-18.6c2.6-6.6,6.8-12.6,12.5-18c5.7-5.4,13-10,21.9-13.7c8.9-3.7,19.6-5.5,32.1-5.5c11.3,0,22.2,1.5,32.6,4.5
		c10.4,3,19.5,9.1,27.3,18.3l-22.9,20c-3.5-5.3-8.5-9.5-15-12.7c-6.5-3.2-13.8-4.8-22-4.8c-7.8,0-14.3,1-19.5,3
		c-5.2,2-9.3,4.5-12.5,7.6c-3.1,3.1-5.3,6.4-6.6,10c-1.3,3.6-1.9,6.9-1.9,9.9c0,8.5,2.5,14.9,7.6,19.4c5.1,4.5,11.4,8.2,18.9,11
		c7.5,2.8,15.7,5.4,24.6,7.6c8.9,2.3,17.1,5.4,24.6,9.4c7.5,4,13.8,9.5,18.9,16.3c5.1,6.9,7.6,16.3,7.6,28.3
		c0,9.6-1.9,18.2-5.7,25.9c-3.8,7.7-8.9,14.2-15.4,19.4c-6.5,5.3-14.1,9.3-22.9,12.1c-8.8,2.8-18.2,4.2-28.2,4.2
		c-13.3,0-25.9-2.3-37.8-6.8c-11.9-4.5-21.4-11.5-28.5-20.8L904.8,855.7z"/>
	<path fill="#FFFFFF" d="M1105.2,723.3h-66.9V698h161.9v25.4h-66.9v174.1h-28.2V723.3z"/>
	<path fill="#FFFFFF" d="M1230.1,698h134.1v25.4h-105.9v59.4h98.6v25.4h-98.6v63.9h111.2v25.4h-139.3V698z"/>
	<path fill="#FFFFFF" d="M1407.3,698h41.9l66,151h1.2l65.4-151h41.9v199.4h-28.2V733.5h-0.6l-70.1,163.9h-18.8L1436,733.5h-0.6
		v163.9h-28.2V698z"/>
	<path fill="#FFFFFF" d="M1681.3,855.7c5.1,7.3,11.6,12.7,19.5,16.2c7.9,3.5,16.1,5.2,24.5,5.2c4.7,0,9.5-0.7,14.4-2.1
		c4.9-1.4,9.3-3.5,13.3-6.3c4-2.8,7.3-6.3,9.8-10.4c2.5-4.1,3.8-8.9,3.8-14.4c0-7.7-2.5-13.6-7.6-17.6c-5.1-4-11.4-7.4-18.9-10.1
		c-7.5-2.7-15.7-5.4-24.6-7.9c-8.9-2.5-17.1-6.1-24.6-10.6c-7.5-4.5-13.8-10.6-18.9-18.2c-5.1-7.6-7.6-17.9-7.6-30.8
		c0-5.8,1.3-12,4-18.6c2.6-6.6,6.8-12.6,12.5-18c5.7-5.4,13-10,21.9-13.7c8.9-3.7,19.6-5.5,32.1-5.5c11.3,0,22.2,1.5,32.6,4.5
		c10.4,3,19.5,9.1,27.3,18.3l-22.9,20c-3.5-5.3-8.5-9.5-15-12.7c-6.5-3.2-13.8-4.8-22-4.8c-7.8,0-14.3,1-19.5,3
		c-5.2,2-9.3,4.5-12.5,7.6c-3.1,3.1-5.3,6.4-6.6,10c-1.3,3.6-1.9,6.9-1.9,9.9c0,8.5,2.5,14.9,7.6,19.4c5.1,4.5,11.4,8.2,18.9,11
		c7.5,2.8,15.7,5.4,24.6,7.6c8.9,2.3,17.1,5.4,24.6,9.4c7.5,4,13.8,9.5,18.9,16.3c5.1,6.9,7.6,16.3,7.6,28.3
		c0,9.6-1.9,18.2-5.7,25.9c-3.8,7.7-8.9,14.2-15.4,19.4c-6.5,5.3-14.1,9.3-22.9,12.1c-8.8,2.8-18.2,4.2-28.2,4.2
		c-13.3,0-25.9-2.3-37.8-6.8c-11.9-4.5-21.4-11.5-28.5-20.8L1681.3,855.7z"/>
</g>
<g>
	<path fill="#FFFFFF" d="M560.1,1099.5c4.8,7.3,10.9,12.7,18.3,16.2c7.4,3.5,15.1,5.2,22.9,5.2c4.4,0,8.9-0.7,13.5-2.1
		c4.6-1.4,8.7-3.5,12.5-6.3c3.8-2.8,6.8-6.3,9.2-10.4c2.4-4.1,3.6-8.9,3.6-14.4c0-7.7-2.4-13.6-7.1-17.6c-4.8-4-10.7-7.4-17.7-10.1
		c-7.1-2.7-14.7-5.4-23.1-7.9c-8.3-2.5-16-6.1-23.1-10.6c-7.1-4.5-13-10.6-17.7-18.2c-4.8-7.6-7.1-17.9-7.1-30.8
		c0-5.8,1.2-12,3.7-18.6c2.5-6.6,6.4-12.6,11.7-18c5.3-5.4,12.1-10,20.5-13.7c8.3-3.7,18.4-5.5,30.1-5.5c10.6,0,20.8,1.5,30.5,4.5
		c9.7,3,18.2,9.1,25.6,18.3l-21.4,20c-3.3-5.3-8-9.5-14-12.7c-6-3.2-12.9-4.8-20.6-4.8c-7.3,0-13.4,1-18.3,3
		c-4.9,2-8.7,4.5-11.7,7.6c-2.9,3.1-5,6.4-6.2,10c-1.2,3.6-1.8,6.9-1.8,9.9c0,8.5,2.4,14.9,7.1,19.4c4.8,4.5,10.7,8.2,17.7,11
		c7,2.8,14.7,5.4,23.1,7.6c8.3,2.3,16,5.4,23.1,9.4c7,4,13,9.5,17.7,16.3c4.8,6.9,7.1,16.3,7.1,28.3c0,9.6-1.8,18.2-5.4,25.9
		c-3.6,7.7-8.4,14.2-14.4,19.4c-6,5.3-13.2,9.3-21.4,12.1c-8.2,2.8-17,4.2-26.4,4.2c-12.5,0-24.3-2.3-35.4-6.8
		c-11.2-4.5-20.1-11.5-26.6-20.8L560.1,1099.5z"/>
	<path fill="#FFFFFF" d="M707.1,941.8h125.6v25.4h-99.2v59.4h92.3v25.4h-92.3v63.9h104.1v25.4H707.1V941.8z"/>
	<path fill="#FFFFFF" d="M1010.4,984.9c-5.5-7.3-12.5-13-20.9-16.9c-8.4-3.9-17.1-5.9-26.1-5.9c-11,0-20.9,2.1-29.8,6.3
		c-8.9,4.2-16.5,10-22.8,17.3c-6.3,7.3-11.2,15.9-14.7,25.8c-3.5,9.9-5.2,20.4-5.2,31.7c0,10.5,1.6,20.5,4.9,29.9
		c3.3,9.4,8.1,17.7,14.3,24.8c6.2,7.1,13.8,12.8,22.8,16.9c9,4.1,19.1,6.2,30.5,6.2c11.2,0,21-2.3,29.4-7
		c8.4-4.7,15.6-11.3,21.4-19.7l22.3,17.2c-1.5,2.1-4,5-7.7,8.9c-3.7,3.9-8.5,7.7-14.6,11.5c-6,3.9-13.3,7.2-21.8,10.1
		c-8.5,2.9-18.4,4.4-29.5,4.4c-15.4,0-29.3-3-41.6-9c-12.4-6-22.9-13.9-31.6-23.7c-8.7-9.8-15.3-20.8-19.9-33.1
		c-4.6-12.3-6.9-24.7-6.9-37.3c0-15.4,2.5-29.6,7.4-42.7c4.9-13.1,11.9-24.3,20.7-33.8c8.9-9.5,19.5-16.9,32-22.1
		c12.5-5.3,26.2-7.9,41.2-7.9c12.8,0,25.4,2.5,37.8,7.6c12.4,5.1,22.5,12.9,30.4,23.4L1010.4,984.9z"/>
	<path fill="#FFFFFF" d="M1091.2,941.8V1064c0,6.2,0.8,12.6,2.5,19.3c1.6,6.7,4.4,12.8,8.2,18.5c3.8,5.6,8.9,10.2,15.1,13.8
		c6.2,3.6,13.9,5.4,23.1,5.4c9.2,0,16.8-1.8,23.1-5.4c6.2-3.6,11.3-8.2,15.1-13.8c3.8-5.6,6.6-11.8,8.2-18.5
		c1.6-6.7,2.5-13.1,2.5-19.3V941.8h26.4v126.5c0,11.6-1.9,22.2-5.8,31.7c-3.8,9.5-9.2,17.7-15.9,24.6c-6.8,6.9-14.7,12.3-23.9,16.1
		c-9.2,3.8-19.1,5.6-29.7,5.6c-10.6,0-20.5-1.9-29.7-5.6c-9.2-3.8-17.1-9.1-23.9-16.1c-6.8-6.9-12.1-15.2-15.9-24.6
		c-3.8-9.5-5.8-20-5.8-31.7V941.8H1091.2z"/>
	<path fill="#FFFFFF" d="M1261.8,941.8h68.4c12.5,0,22.7,1.7,30.8,5.2c8.1,3.5,14.4,7.9,19.1,13.2c4.7,5.4,7.9,11.4,9.8,18
		c1.8,6.7,2.7,13.1,2.7,19.3c0,6.4-1.1,12.5-3.3,18.5c-2.2,5.9-5.4,11.3-9.5,16.1c-4.1,4.8-9.2,8.8-15.1,12.1
		c-6,3.3-12.6,5.3-19.9,6.1l55.2,91h-33l-49.5-87.9h-29.4v87.9h-26.4V941.8z M1288.2,1029.7h34.6c5.1,0,10.2-0.4,15.2-1.3
		c5-0.8,9.5-2.4,13.5-4.6c3.9-2.3,7.1-5.5,9.5-9.7c2.4-4.2,3.6-9.7,3.6-16.5s-1.2-12.3-3.6-16.5c-2.4-4.2-5.5-7.5-9.5-9.7
		c-3.9-2.3-8.4-3.8-13.5-4.6c-5-0.8-10.1-1.3-15.2-1.3h-34.6V1029.7z"/>
	<path fill="#FFFFFF" d="M1429.7,941.8h26.4v199.4h-26.4V941.8z"/>
	<path fill="#FFFFFF" d="M1546.7,967.1h-62.6v-25.4h151.7v25.4h-62.6v174.1h-26.4V967.1z"/>
	<path fill="#FFFFFF" d="M1709.6,1056.1L1636,941.8h33.8l53,87.6l54.7-87.6h32.1l-73.6,114.4v85.1h-26.4V1056.1z"/>
</g>
<g>
	<path fill="#FFFFFF" d="M551.7,1176.6h31.5c9.5,0,42.7,0,42.7,32.3c0,23.4-17.4,29.9-30.7,31.6l34.9,59h-12.7l-33.7-58.3h-20.8
		v58.3h-11.2V1176.6z M562.9,1230.7h23.7c23.5,0,28.1-13.4,28.1-21.9s-4.6-21.9-28.1-21.9h-23.7V1230.7z"/>
	<path fill="#FFFFFF" d="M657.2,1176.6h73.3v10.4h-62.2v43.8h58.3v10.4h-58.3v47.9h64.9v10.4h-76V1176.6z"/>
	<path fill="#FFFFFF" d="M765.9,1276.7c5.9,10.2,15.6,15.5,27.4,15.5c15.1,0,26.9-9.4,26.9-24.1c0-34.4-61.8-14.2-61.8-60.9
		c0-21.9,18.3-33.7,38.4-33.7c13,0,24.6,4.5,32.7,15.5l-9.7,7.1c-5.6-8-13-12.2-23.4-12.2c-14.4,0-26.9,7.6-26.9,23.3
		c0,37,61.8,14.8,61.8,60.9c0,22.2-17.8,34.6-37.3,34.6c-15.7,0-29.6-5.2-39-18.6L765.9,1276.7z"/>
	<path fill="#FFFFFF" d="M862,1176.6h73.3v10.4h-62.2v43.8h58.3v10.4h-58.3v47.9H938v10.4h-76V1176.6z"/>
	<path fill="#FFFFFF" d="M1004.2,1176.6h11.5l50.5,122.9h-12.5l-13-32.6h-63.5l-13.5,32.6h-11.7L1004.2,1176.6z M1009.5,1189.1
		l-27.9,67.4h55L1009.5,1189.1z"/>
	<path fill="#FFFFFF" d="M1088.6,1176.6h31.5c9.5,0,42.7,0,42.7,32.3c0,23.4-17.4,29.9-30.7,31.6l34.9,59h-12.7l-33.7-58.3h-20.8
		v58.3h-11.2V1176.6z M1099.8,1230.7h23.7c23.5,0,28.1-13.4,28.1-21.9s-4.6-21.9-28.1-21.9h-23.7V1230.7z"/>
	<path fill="#FFFFFF" d="M1292.8,1280.2c-11.3,16-26.9,22.4-44.5,22.4c-36.6,0-62-27.1-62-64.6c0-37.5,25.4-64.6,62-64.6
		c16.3,0,30.8,5.6,41.3,19.3l-9.1,7.8c-7.5-11.5-20.2-16.7-32.2-16.7c-31.3,0-50.8,23.6-50.8,54.2c0,30.6,19.5,54.2,50.8,54.2
		c12,0,26.9-5.9,35.4-19.1L1292.8,1280.2z"/>
	<path fill="#FFFFFF" d="M1318.4,1176.6h11.2v54.2h67.1v-54.2h11.2v122.9h-11.2v-58.3h-67.1v58.3h-11.2V1176.6z"/>
	<path fill="#FFFFFF" d="M1494.9,1176.6h11.2v112.5h55.9v10.4h-67.1V1176.6z"/>
	<path fill="#FFFFFF" d="M1621.4,1176.6h11.5l50.5,122.9h-12.5l-13-32.6h-63.5l-13.5,32.6h-11.7L1621.4,1176.6z M1626.6,1189.1
		l-27.9,67.4h55L1626.6,1189.1z"/>
	<path fill="#FFFFFF" d="M1705.7,1176.6h34.5c18.3,0,38.6,4.7,38.6,32.5c0,12.5-7.3,22.6-21.5,25.5v0.3c15.7,1.2,26.8,13,26.8,30.2
		c0,28.3-23.9,34.4-40.1,34.4h-38.3V1176.6z M1716.9,1229.7h23.2c23.2,0,27.6-13,27.6-20.7c0-17.2-11.9-22.1-26.1-22.1h-24.7V1229.7
		z M1716.9,1289.1h25.6c26.3,0,30.5-14.9,30.5-23.6c0-18.2-14.6-25.4-28.8-25.4h-27.3V1289.1z"/>
</g>
<path fill="#FFFFFF" d="M245.9,867.5l-37.2,27.9c0,0-36.9-24.5-57.3-64.2c-25.9-50.3-7.5-111.1,41.1-140.1
	c19.5-11.6,45.7-19.5,79.8-15.6c22.6,2.6,44.5,10.7,62.3,24.9c22.2,17.7,44.5,49,33.7,100.5c0,0-9.8,45.5-69,99.9
	c0,0,87.6,75.9,96.4,102.8h-58.3c0,0-50.4-57.8-82.3-73.4c0,0-65.1,43.6-82.3,83.2h247.7c0,0,9.8,32.3,0,47.5h-20.6
	c0,0-53.4,116-178.2,90.1c0,0-70-16.2-98.9-82.7h62.3c0,0,77.5,96,156.4-8H121.1c0,0-24.4-90.6,108.3-166.3
	c0,0,114.9-70.4,91.2-135.7c-1.3-3.5-3.1-6.7-5.2-9.7c-8.7-12.3-32.9-36.5-82-23c-20.6,5.7-37,22.2-41,43.2c-3,16,0.3,36.9,19.8,62
	L245.9,867.5z"/>
<rect x="464" y="674.5" fill="#FFFFFF" width="14" height="480.2"/>
</svg>
