<?xml version="1.0" encoding="UTF-8" standalone="no"?>
<svg
   xmlns:dc="http://purl.org/dc/elements/1.1/"
   xmlns:cc="http://creativecommons.org/ns#"
   xmlns:rdf="http://www.w3.org/1999/02/22-rdf-syntax-ns#"
   xmlns:svg="http://www.w3.org/2000/svg"
   xmlns="http://www.w3.org/2000/svg"
   viewBox="0 0 636.25336 484.50668"
   height="484.50668"
   width="636.25336"
   xml:space="preserve"
   id="svg2"
   version="1.1"><metadata
     id="metadata8"><rdf:RDF><cc:Work
         rdf:about=""><dc:format>image/svg+xml</dc:format><dc:type
           rdf:resource="http://purl.org/dc/dcmitype/StillImage" /></cc:Work></rdf:RDF></metadata><defs
     id="defs6" /><g
     transform="matrix(1.3333333,0,0,-1.3333333,0,484.50667)"
     id="g10"><g
       transform="scale(0.1)"
       id="g12"><path
         id="path14"
         style="fill:#eb2629;fill-opacity:1;fill-rule:nonzero;stroke:none"
         d="M 4771.85,0 H 0 V 3633.82 H 4771.85 V 0" /><path
         id="path16"
         style="fill:#ffffff;fill-opacity:1;fill-rule:nonzero;stroke:none"
         d="m 2322.96,2133 c 6.39,0 10.21,2.56 12.79,8.92 l 43.38,141.65 c 3.82,11.49 0,17.88 -7.66,17.88 -3.84,0 -6.38,-1.26 -11.49,-8.91 -7.66,-10.23 -17.88,-25.54 -25.52,-25.54 -5.11,0 -7.67,1.26 -11.5,5.1 -35.72,40.84 -81.68,52.33 -122.52,52.33 -188.86,0 -353.51,-200.37 -353.51,-386.73 0,-107.18 65.08,-168.44 159.53,-168.44 39.57,0 75.28,7.65 130.19,30.63 12.75,5.09 25.49,10.21 35.72,10.21 12.76,0 14.05,-16.61 15.31,-38.27 0,-7.64 5.1,-11.5 10.23,-11.5 5.09,0 10.18,1.28 12.74,6.36 l 53.6,155.71 c 5.1,12.76 -1.26,19.16 -8.91,19.16 -7.67,0 -12.79,-3.86 -19.15,-14.06 -40.86,-68.89 -140.4,-122.52 -220.8,-122.52 -62.54,0 -90.63,47.24 -90.63,114.87 0,162.1 146.78,370.11 271.86,370.11 65.08,0 114.85,-39.55 114.85,-122.5 0,-6.39 -1.28,-15.34 -1.28,-21.71 0,-7.67 5.12,-12.75 12.77,-12.75 v 0" /><path
         id="path18"
         style="fill:#ffffff;fill-opacity:1;fill-rule:nonzero;stroke:none"
         d="m 2582.07,2153.41 c 29.34,0 42.09,-22.98 42.09,-56.14 0,-99.55 -102.1,-288.45 -176.1,-288.45 -29.38,0 -42.13,20.43 -42.13,53.59 0,108.5 102.11,291 176.14,291 z m -3.84,31.91 c -121.25,0 -223.35,-145.5 -223.35,-292.29 0,-65.07 33.17,-118.67 95.72,-118.67 122.53,0 224.61,158.27 224.61,292.27 0,65.09 -33.17,118.69 -96.98,118.69 v 0" /><path
         id="path20"
         style="fill:#ffffff;fill-opacity:1;fill-rule:nonzero;stroke:none"
         d="m 2889.64,2283.57 c 0,-2.53 -1.29,-7.65 -3.84,-12.74 -65.09,-150.61 -127.61,-292.25 -190.17,-442.87 -3.8,-8.94 -8.94,-22.98 -8.94,-33.18 0,-11.47 10.25,-22.95 24.26,-22.95 8.94,0 20.43,1.26 30.65,5.08 39.55,14.04 71.45,35.73 98.25,67.67 2.55,2.54 5.11,6.35 5.11,11.49 0,6.34 -2.56,10.18 -7.66,10.18 -2.55,0 -5.1,-1.26 -8.94,-3.84 -12.76,-8.92 -29.34,-25.51 -57.41,-40.83 -2.55,-1.28 -7.68,-3.82 -10.21,-3.82 -2.55,0 -3.82,1.26 -3.82,3.82 0,3.83 1.27,6.38 2.53,10.19 l 201.62,465.86 c 3.86,8.93 5.13,14.04 5.13,19.15 0,5.08 -3.82,7.65 -10.2,7.65 -10.22,0 -29.34,-1.28 -44.67,-2.57 -12.75,-1.26 -42.13,-2.52 -61.26,-5.08 -7.67,-1.28 -12.77,-6.39 -12.77,-11.49 0,-6.39 5.1,-10.23 11.5,-10.23 10.18,-1.26 26.81,-2.52 35.73,-5.1 3.82,-1.26 5.11,-3.82 5.11,-6.39 v 0" /><path
         id="path22"
         style="fill:#ffffff;fill-opacity:1;fill-rule:nonzero;stroke:none"
         d="m 3098.94,2283.57 c 0,-2.53 -1.26,-7.65 -3.83,-12.74 -65.1,-150.61 -127.63,-292.25 -190.17,-442.87 -3.81,-8.94 -8.9,-22.98 -8.9,-33.18 0,-11.47 10.22,-22.95 24.22,-22.95 8.95,0 20.42,1.26 30.62,5.08 39.6,14.04 71.49,35.73 98.3,67.67 2.55,2.54 5.07,6.35 5.07,11.49 0,6.34 -2.52,10.18 -7.65,10.18 -2.52,0 -5.08,-1.26 -8.9,-3.84 -12.76,-8.92 -29.38,-25.51 -57.43,-40.83 -2.58,-1.28 -7.67,-3.82 -10.23,-3.82 -2.56,0 -3.84,1.26 -3.84,3.82 0,3.83 1.28,6.38 2.57,10.19 l 201.63,465.86 c 3.83,8.93 5.12,14.04 5.12,19.15 0,5.08 -3.85,7.65 -10.23,7.65 -10.18,0 -29.33,-1.28 -44.63,-2.57 -12.8,-1.26 -42.14,-2.52 -61.31,-5.08 -7.62,-1.28 -12.75,-6.39 -12.75,-11.49 0,-6.39 5.13,-10.23 11.49,-10.23 10.22,-1.26 26.82,-2.52 35.76,-5.1 3.83,-1.26 5.09,-3.82 5.09,-6.39 v 0" /><path
         id="path24"
         style="fill:#ffffff;fill-opacity:1;fill-rule:nonzero;stroke:none"
         d="m 3321.01,2011.73 c -35.74,-11.48 -68.93,-20.42 -90.62,-22.96 24.27,48.51 51.07,84.22 80.43,113.6 16.58,17.85 44.64,40.84 71.46,40.84 19.13,0 29.37,-11.49 29.37,-33.19 0,-44.68 -38.32,-81.67 -90.64,-98.29 z m 51.03,-151.84 c 2.58,3.82 5.13,7.62 5.13,12.76 0,6.37 -5.13,11.48 -11.48,11.48 -3.84,0 -7.68,-2.58 -10.23,-5.11 -25.51,-26.8 -62.52,-61.26 -107.19,-61.26 -33.18,0 -52.34,24.24 -52.34,63.79 0,28.1 10.2,54.89 19.16,75.32 28.1,5.09 82.96,16.58 111.02,25.54 93.16,29.32 141.66,76.57 141.66,135.26 0,39.56 -28.07,57.43 -67.6,57.43 -114.9,0 -271.88,-158.24 -271.88,-311.39 0,-52.34 34.45,-89.35 86.8,-89.35 71.44,0 117.42,35.74 156.95,85.53 v 0" /><path
         id="path26"
         style="fill:#ffffff;fill-opacity:1;fill-rule:nonzero;stroke:none"
         d="m 4007.62,2011.73 c -35.73,-11.48 -68.88,-20.42 -90.57,-22.96 24.24,48.51 51.03,84.22 80.38,113.6 16.6,17.85 44.65,40.84 71.45,40.84 19.15,0 29.36,-11.49 29.36,-33.19 0,-44.68 -38.28,-81.67 -90.62,-98.29 z m 51.08,-151.84 c 2.52,3.82 5.11,7.62 5.11,12.76 0,6.37 -5.11,11.48 -11.5,11.48 -3.81,0 -7.67,-2.58 -10.23,-5.11 -25.5,-26.8 -62.52,-61.26 -107.21,-61.26 -33.15,0 -52.29,24.24 -52.29,63.79 0,28.1 10.18,54.89 19.14,75.32 28.08,5.09 82.94,16.58 111.05,25.54 93.13,29.32 141.66,76.57 141.66,135.26 0,39.56 -28.09,57.43 -67.66,57.43 -114.88,0 -271.82,-158.24 -271.82,-311.39 0,-52.34 33.17,-89.35 86.77,-89.35 71.43,0 117.39,35.74 156.98,85.53 v 0" /><path
         id="path28"
         style="fill:#ffffff;fill-opacity:1;fill-rule:nonzero;stroke:none"
         d="m 3557.13,1667.14 c -68.93,0 -108.5,30.65 -108.5,63.82 0,39.56 44.67,67.67 89.37,82.97 19.13,-10.21 47.18,-22.98 68.91,-35.74 35.72,-21.68 42.12,-33.17 42.12,-52.34 0,-34.42 -35.77,-58.71 -91.9,-58.71 z m 62.52,289.73 c -20.4,0 -30.62,17.87 -30.62,44.66 0,21.71 7.64,48.49 25.52,80.42 25.53,45.95 58.73,72.75 90.6,72.75 20.43,0 33.2,-12.78 33.2,-35.76 0,-24.24 -7.66,-54.86 -26.79,-89.32 -35.76,-59.99 -65.11,-72.75 -91.91,-72.75 z m 168.45,134.01 c 0,22.95 -3.82,31.9 -3.82,40.84 0,8.91 10.23,15.32 25.56,15.32 16.59,0 29.32,-12.77 44.64,-12.77 12.77,0 22.98,10.2 22.98,25.54 0,15.29 -11.5,22.96 -29.34,22.96 -16.62,0 -35.75,-5.11 -56.16,-17.89 -5.13,-2.52 -10.23,-6.36 -16.59,-6.36 -2.58,0 -7.67,1.29 -11.51,3.84 -15.28,8.91 -31.9,15.3 -63.81,15.3 -42.13,0 -96.99,-21.7 -132.75,-70.2 -25.49,-35.73 -30.59,-58.7 -30.59,-84.22 0,-22.99 7.65,-42.14 14.01,-53.61 1.29,-2.54 5.12,-6.38 5.12,-8.94 0,-5.1 -7.67,-7.64 -22.98,-11.49 -26.78,-6.38 -61.25,-24.22 -61.25,-57.43 0,-25.52 14.04,-40.84 40.83,-60 -48.51,-12.75 -128.91,-44.64 -128.91,-99.53 0,-53.61 67.66,-94.42 168.48,-94.42 97.02,0 164.62,40.81 164.62,104.63 0,34.46 -31.88,65.09 -88.05,93.15 -57.44,28.11 -96.99,47.25 -96.99,68.92 0,19.16 15.32,28.11 43.38,28.11 15.34,0 35.77,-5.13 51.08,-5.13 45.94,0 108.46,14.06 146.74,95.74 10.23,22.95 15.31,45.92 15.31,67.64 v 0" /><path
         id="path30"
         style="fill:#ffffff;fill-opacity:1;fill-rule:nonzero;stroke:none"
         d="M 4141.99,796.012 H 628.164 v -46.25 H 4141.99 v 46.25" /><path
         id="path32"
         style="fill:#ffffff;fill-opacity:1;fill-rule:nonzero;stroke:none"
         d="M 4141.99,631.609 H 628.164 V 541.711 H 4141.99 v 89.898" /><path
         id="path34"
         style="fill:#ffffff;fill-opacity:1;fill-rule:nonzero;stroke:none"
         d="m 3497.29,2622.7 c 0,52.67 38.54,57.79 71.9,60.37 6.43,0 10.27,6.41 10.27,14.11 0,6.43 -3.84,11.56 -12.81,11.56 H 3307.2 c -8.98,0 -15.42,-5.13 -15.42,-12.83 0,-8.99 6.44,-15.42 15.42,-15.42 51.4,-3.84 92.46,-12.83 92.46,-62.92 v -78.37 c 0,-21.81 -7.72,-33.37 -20.54,-43.64 -47.52,-34.68 -96.32,-39.8 -136.11,-39.8 -161.85,0 -235.03,134.84 -235.03,272.25 0,184.93 116.85,283.83 245.28,283.83 118.15,0 195.22,-51.36 238.86,-139.98 5.17,-10.28 10.3,-14.13 18.02,-14.13 6.4,0 11.53,6.42 11.53,14.13 v 138.71 c 0,7.7 -5.13,12.83 -11.53,12.83 -7.72,0 -11.59,-5.13 -14.15,-12.83 -3.87,-15.43 -11.56,-25.69 -23.13,-25.69 -7.69,0 -19.27,6.42 -26.96,11.55 -52.64,30.83 -97.6,53.94 -192.64,53.94 -156.68,0 -351.9,-86.04 -351.9,-318.52 0,-241.42 182.37,-315.92 341.65,-315.92 142.53,0 231.18,70.65 254.28,89.9 v 116.87" /><path
         id="path36"
         style="fill:#ffffff;fill-opacity:1;fill-rule:nonzero;stroke:none"
         d="m 3655.26,2954.05 c 10.25,0 23.12,5.13 26.96,15.41 1.28,-2.58 2.57,-6.42 2.57,-10.28 0,-25.66 -20.55,-50.09 -55.23,-64.21 -5.13,-2.57 -8.97,-6.42 -8.97,-12.85 0,-6.4 6.4,-10.26 14.11,-8.98 56.51,10.28 87.32,61.66 87.32,110.46 0,43.66 -24.36,66.77 -59.05,66.77 -23.12,0 -53.94,-11.55 -53.94,-50.08 0,-30.83 23.1,-46.24 46.23,-46.24 v 0" /><path
         id="path38"
         style="fill:#ffffff;fill-opacity:1;fill-rule:nonzero;stroke:none"
         d="m 4134.29,2897.53 c 6.44,0 11.55,5.15 10.27,12.86 l -19.24,134.86 c -1.3,8.97 -5.17,11.55 -11.59,11.55 -3.85,0 -7.69,-2.58 -10.25,-9.01 -3.87,-10.25 -10.31,-20.53 -23.11,-20.53 -21.83,0 -50.12,23.11 -111.75,23.11 -79.66,0 -184.96,-41.1 -184.96,-151.53 0,-115.6 92.5,-156.7 172.13,-184.95 87.3,-30.82 151.53,-51.39 151.53,-138.71 0,-86.05 -66.79,-118.15 -133.56,-118.15 -70.64,0 -150.28,33.4 -181.11,137.43 -2.55,8.97 -6.41,14.11 -15.39,14.11 -9,0 -14.12,-5.14 -14.12,-16.7 V 2442.9 c 0,-9 5.12,-14.12 12.82,-14.12 5.14,0 8.98,2.55 12.85,8.99 3.84,8.96 11.54,23.11 24.41,23.11 25.69,0 75.74,-44.95 166.94,-44.95 86.06,0 217.06,32.13 217.06,187.5 0,64.23 -25.68,147.69 -182.39,192.66 -110.44,32.09 -145.12,71.92 -145.12,127.13 0,48.82 33.41,88.62 105.35,88.62 52.63,0 107.87,-24.39 146.41,-104.03 3.85,-7.7 7.71,-10.28 12.82,-10.28 v 0" /><path
         id="path40"
         style="fill:#ffffff;fill-opacity:1;fill-rule:nonzero;stroke:none"
         d="m 1976.66,2943.78 c 0,48.8 14.13,73.19 62.94,79.62 9,1.27 14.13,5.13 14.13,12.84 0,6.43 -5.13,10.28 -14.13,10.28 h -226.04 c -9.01,0 -14.13,-3.85 -14.13,-10.28 0,-7.71 5.12,-11.57 14.13,-12.84 48.8,-6.43 62.93,-30.82 62.93,-79.62 v -421.25 c 0,-48.81 -14.13,-73.2 -62.93,-79.63 -9.01,-1.28 -14.13,-5.13 -14.13,-12.84 0,-6.43 5.12,-10.29 14.13,-10.29 h 226.04 c 9,0 14.13,3.86 14.13,10.29 0,7.71 -5.13,11.56 -14.13,12.84 -48.81,6.43 -62.94,30.82 -62.94,79.63 v 421.25" /><path
         id="path42"
         style="fill:#ffffff;fill-opacity:1;fill-rule:nonzero;stroke:none"
         d="m 2769.08,2932.2 c 2.54,62.94 14.13,84.77 62.93,91.2 8.97,1.27 14.14,5.13 14.14,12.84 0,6.43 -5.17,10.28 -14.14,10.28 h -193.89 c -5.18,0 -9.02,-5.13 -9.02,-11.56 0,-5.14 3.84,-10.29 10.29,-11.56 41.07,-6.43 70.6,-15.4 75.77,-91.2 6.41,-88.61 7.71,-339.05 7.71,-339.05 l -404.57,453.37 h -160.53 c -9,0 -14.14,-3.85 -14.14,-10.28 0,-7.71 5.14,-11.57 14.14,-12.84 26.96,-3.85 62.9,-16.68 62.9,-59.07 0,-127.14 0,-294.12 -5.14,-430.25 -2.56,-62.92 -14.11,-84.75 -62.91,-91.18 -8.99,-1.28 -14.14,-5.13 -14.14,-12.84 0,-6.43 5.15,-10.29 14.14,-10.29 h 193.94 c 5.13,0 8.98,5.16 8.98,11.56 0,5.15 -3.85,10.29 -10.26,11.57 -41.11,6.43 -70.66,15.4 -75.81,91.18 -5.12,88.62 -7.7,412.27 -7.7,412.27 l 472.64,-526.58 h 29.53 c 0,0 0,376.32 5.14,512.43 v 0" /><path
         id="path44"
         style="fill:#ffffff;fill-opacity:1;fill-rule:nonzero;stroke:none"
         d="m 917.117,2855.15 c 1.274,71.94 12.84,132.3 152.833,151.57 14.13,2.55 21.84,8.98 21.84,21.81 0,10.29 -7.71,17.99 -19.28,17.99 -87.303,-3.85 -125.842,-3.85 -233.713,-3.85 -92.477,0 -210.633,3.85 -228.633,3.85 -15.406,0 -24.398,-6.43 -24.398,-17.99 0,-10.26 7.714,-17.96 21.839,-19.26 50.098,-7.71 127.157,-19.26 132.286,-164.38 1.277,-44.95 2.574,-267.16 2.574,-508.58 0,-155.41 -1.297,-291.54 -3.848,-354.46 -5.156,-145.16 -82.211,-156.71 -132.308,-164.4 -14.106,-1.28 -21.813,-9 -21.813,-19.27 0,-11.55 8.984,-17.98 24.399,-17.98 17.988,0 136.121,3.87 228.601,3.87 107.871,0 161.813,0 249.164,-3.87 11.55,0 19.25,7.7 19.25,17.98 0,12.84 -7.7,19.27 -21.83,21.84 -139.986,19.27 -161.834,79.61 -168.236,151.54 -2.574,30.83 -5.156,109.15 -5.156,191.36 0,82.2 1.308,161.84 2.582,178.52 1.269,19.26 11.558,25.69 21.839,25.69 8.985,0 17.957,-3.85 24.391,-9 87.34,-73.2 355.75,-393 508.59,-577.93 h 326.21 c 12.83,0 17.96,6.43 17.96,16.7 0,11.55 -7.71,20.55 -17.96,20.55 -61.64,6.42 -100.18,18 -177.22,79.63 -79.64,62.92 -526.57,597.2 -526.57,597.2 34.67,39.8 240.15,249.13 358.31,355.74 138.7,125.87 192.65,142.56 251.72,156.7 9,2.55 15.41,7.69 15.41,19.26 0,11.56 -7.71,20.54 -25.67,20.54 -30.82,0 -123.3,-3.85 -182.39,-3.85 -102.73,0 -187.5,3.85 -205.47,3.85 -15.42,0 -26.98,-7.7 -26.98,-20.54 0,-11.57 10.26,-19.26 24.4,-21.84 20.55,-3.85 38.52,-6.43 59.1,-14.13 20.52,-7.71 32.08,-16.69 32.08,-38.53 0,-20.55 -8.98,-38.54 -20.53,-56.51 -28.27,-43.67 -60.37,-83.48 -111.73,-137.43 -122.02,-125.84 -272.276,-274.81 -322.381,-315.92 -5.121,-3.85 -8.981,-5.14 -12.832,-5.14 -7.703,0 -10.277,8.99 -10.277,17.97 0,10.28 1.269,244.03 3.847,400.7 v 0" /><path
         id="path46"
         style="fill:#ffffff;fill-opacity:1;fill-rule:nonzero;stroke:none"
         d="m 629.434,1531.88 c -5.129,0 -8.981,-3.85 -8.981,-10.24 0,-5.16 5.121,-10.3 11.551,-10.3 42.394,-2.55 57.793,-30.83 57.793,-71.9 V 1082.4 c 0,-41.08 -15.399,-68.09 -57.793,-71.9 -6.43,0 -11.551,-5.13 -11.551,-10.32 0,-6.41 3.852,-10.25 8.981,-10.25 H 1082.8 l 28.24,151.56 c 2.59,10.27 -2.56,16.69 -10.26,16.69 -6.42,0 -11.55,-3.86 -14.12,-10.27 -39.82,-110.46 -102.758,-123.28 -196.515,-123.28 -95.043,0 -115.571,15.4 -115.571,59.05 v 369.9 c 0,43.63 37.239,55.21 64.223,56.5 7.711,1.26 11.551,5.12 11.551,10.27 0,6.4 -5.153,11.53 -12.852,11.53 H 629.434" /><path
         id="path48"
         style="fill:#ffffff;fill-opacity:1;fill-rule:nonzero;stroke:none"
         d="m 1242.04,1266.04 c 0,133.57 64.23,235.03 178.53,235.03 101.45,0 181.08,-96.33 181.08,-235.03 0,-170.79 -71.92,-245.27 -181.08,-245.27 -106.6,0 -178.53,102.7 -178.53,245.27 z m 178.53,-279.981 c 159.25,0 272.26,110.471 272.26,279.981 0,148.97 -110.43,269.69 -272.26,269.69 -156.69,0 -269.69,-123.28 -269.69,-269.69 0,-159.24 106.58,-279.981 269.69,-279.981 v 0" /><path
         id="path50"
         style="fill:#ffffff;fill-opacity:1;fill-rule:nonzero;stroke:none"
         d="m 2268.2,989.93 2.57,449.51 c 0,41.07 15.4,65.49 57.8,71.9 7.7,1.28 11.54,5.14 11.54,10.3 0,6.39 -3.84,10.24 -8.99,10.24 H 2161.6 c -6.42,0 -10.27,-3.85 -10.27,-10.24 0,-5.16 3.85,-9.02 11.57,-10.3 42.37,-7.68 62.93,-20.52 64.2,-71.9 l 6.43,-308.25 -341.62,400.69 h -145.13 c -6.42,0 -10.27,-3.85 -10.27,-10.24 0,-6.44 3.85,-10.3 11.56,-11.56 35.95,-5.15 52.63,-16.72 52.63,-51.39 l -2.55,-376.29 c 0,-41.08 -15.4,-65.49 -57.79,-71.9 -7.7,-1.29 -11.56,-5.13 -11.56,-10.32 0,-6.41 2.56,-10.25 8.99,-10.25 h 169.52 c 6.45,0 10.29,3.84 10.29,10.25 0,5.19 -3.84,9.03 -11.57,10.32 -29.54,5.11 -62.93,12.81 -64.22,71.9 l -3.85,378.87 400.71,-471.34 h 29.53" /><path
         id="path52"
         style="fill:#ffffff;fill-opacity:1;fill-rule:nonzero;stroke:none"
         d="m 2539.19,1444.58 c 0,48.78 25.68,52.63 93.75,52.63 114.32,0 229.9,-55.19 229.9,-228.59 0,-170.81 -97.6,-243.99 -224.72,-243.99 h -28.31 c -35.95,0 -70.62,10.24 -70.62,75.74 z m -146.41,87.3 c -5.13,0 -8.98,-3.85 -8.98,-10.24 0,-6.44 5.12,-10.3 11.57,-10.3 42.36,-3.83 57.76,-30.83 57.76,-71.9 V 1082.4 c 0,-41.08 -15.4,-68.09 -57.76,-71.9 -7.72,-1.29 -11.57,-5.13 -11.57,-10.32 0,-6.41 3.85,-10.25 8.98,-10.25 h 260.72 c 113.01,0 300.53,57.8 300.53,276.11 0,193.96 -148.99,265.84 -303.09,265.84 h -258.16" /><path
         id="path54"
         style="fill:#ffffff;fill-opacity:1;fill-rule:nonzero;stroke:none"
         d="m 3117.11,1266.04 c 0,133.57 64.25,235.03 178.52,235.03 101.47,0 181.09,-96.33 181.09,-235.03 0,-170.79 -71.9,-245.27 -181.09,-245.27 -106.59,0 -178.52,102.7 -178.52,245.27 z m 178.52,-279.981 c 159.27,0 272.29,110.471 272.29,279.981 0,148.97 -110.45,269.69 -272.29,269.69 -156.66,0 -269.69,-123.28 -269.69,-269.69 0,-159.24 106.6,-279.981 269.69,-279.981 v 0" /><path
         id="path56"
         style="fill:#ffffff;fill-opacity:1;fill-rule:nonzero;stroke:none"
         d="m 4141.99,989.93 2.57,449.51 c 0,41.07 15.44,65.49 57.79,71.9 7.74,1.28 11.58,5.14 11.58,10.3 0,6.39 -3.84,10.24 -9,10.24 h -169.54 c -6.41,0 -10.25,-3.85 -10.25,-10.24 0,-5.16 3.84,-9.02 11.55,-10.3 42.4,-7.68 62.92,-20.52 64.19,-71.9 l 6.44,-308.25 -341.62,400.69 h -145.11 c -6.46,0 -10.29,-3.85 -10.29,-10.24 0,-6.44 3.83,-10.3 11.56,-11.56 35.95,-5.15 52.66,-16.72 52.66,-51.39 l -2.58,-376.29 c 0,-41.08 -15.4,-65.49 -57.81,-71.9 -7.7,-1.29 -11.54,-5.13 -11.54,-10.32 0,-6.41 2.57,-10.25 8.97,-10.25 h 169.54 c 6.44,0 10.27,3.84 10.27,10.25 0,5.19 -3.83,9.03 -11.54,10.32 -29.57,5.11 -62.93,12.81 -64.23,71.9 l -3.86,378.87 400.71,-471.34 h 29.54" /></g></g></svg>