<?xml version="1.0" encoding="UTF-8" standalone="no"?>
<svg
   xmlns:dc="http://purl.org/dc/elements/1.1/"
   xmlns:cc="http://creativecommons.org/ns#"
   xmlns:rdf="http://www.w3.org/1999/02/22-rdf-syntax-ns#"
   xmlns:svg="http://www.w3.org/2000/svg"
   xmlns="http://www.w3.org/2000/svg"
   xmlns:sodipodi="http://sodipodi.sourceforge.net/DTD/sodipodi-0.dtd"
   xmlns:inkscape="http://www.inkscape.org/namespaces/inkscape"
   width="100%"
   height="100%"
   viewBox="0 0 849 317"
   version="1.1"
   xml:space="preserve"
   style="fill-rule:evenodd;clip-rule:evenodd;stroke-linecap:round;stroke-linejoin:round;stroke-miterlimit:1.5;"
   id="svg70"
   sodipodi:docname="s2-white-new.svg"
   inkscape:version="1.0.1 (c497b03c, 2020-09-10)"><metadata
   id="metadata76"><rdf:RDF><cc:Work
       rdf:about=""><dc:format>image/svg+xml</dc:format><dc:type
         rdf:resource="http://purl.org/dc/dcmitype/StillImage" /><dc:title></dc:title></cc:Work></rdf:RDF></metadata><defs
   id="defs74" /><sodipodi:namedview
   pagecolor="#ffffff"
   bordercolor="#666666"
   borderopacity="1"
   objecttolerance="10"
   gridtolerance="10"
   guidetolerance="10"
   inkscape:pageopacity="0"
   inkscape:pageshadow="2"
   inkscape:window-width="1792"
   inkscape:window-height="1067"
   id="namedview72"
   showgrid="false"
   inkscape:zoom="1.0760342"
   inkscape:cx="345.96719"
   inkscape:cy="121.60111"
   inkscape:window-x="0"
   inkscape:window-y="244"
   inkscape:window-maximized="0"
   inkscape:current-layer="svg70" />
    <g
   transform="matrix(1,0,0,1,-103.545,-94.4091)"
   id="g68">
        <g
   transform="matrix(1,0,0,1,-3.40348,6.52085)"
   id="g46">
            
        </g>
        <g
   transform="matrix(1.05823,0,0,1,-34.6826,72.851)"
   id="g52">
            <g
   aria-label="SYSTEMS"
   id="text50"
   style="font-weight:500;font-size:138px;font-family:AvenirNext-Medium, 'Avenir Next', sans-serif;fill:#ffffff" />
        </g>
        <g
   transform="matrix(1,0,0,1,-16.2499,193.096)"
   id="g58">
            <g
   aria-label="SECURITY"
   id="text56"
   style="font-weight:500;font-size:138px;font-family:AvenirNext-Medium, 'Avenir Next', sans-serif;fill:#ffffff" />
        </g>
        <g
   transform="matrix(1.05873,0,0,1,-32.7799,275.847)"
   id="g62">
            <g
   aria-label="RESEARCH LAB"
   id="text60"
   style="font-size:84px;font-family:AvenirNext-UltraLight, 'Avenir Next', sans-serif;fill:#ffffff" />
        </g>
        <g
   transform="matrix(1.00345,0,0,1,-0.956803,0)"
   id="g66">
            <path
   id="rect64"
   style="fill:#ffffff"
   d="m 277.513,95.334 h 5.289 v 241.004 h -5.289 z m 622.10696,254.119 h 18.70041 q 3.5451,0 7.17883,0.756 3.63373,0.672 6.46981,2.436 2.92471,1.68 4.69726,4.62 1.86118,2.94 1.86118,7.392 0,4.704 -3.01334,8.232 -3.01333,3.444 -8.0651,4.536 v 0.168 q 6.1153,0.672 10.10354,4.536 4.07687,3.78 4.07687,10.332 0,3.696 -1.68393,6.804 -1.59529,3.024 -4.60863,5.208 -3.01334,2.1 -7.35609,3.276 -4.34275,1.176 -9.74903,1.176 h -18.61178 z m 6.38118,26.04 h 12.85099 q 2.30432,0 4.60864,-0.504 2.39294,-0.504 4.34275,-1.68 1.9498,-1.26 3.10196,-3.276 1.24079,-2.016 1.24079,-4.956 0,-2.856 -1.24079,-4.788 -1.15216,-2.016 -3.19059,-3.276 -2.03843,-1.26 -4.78589,-1.764 -2.74745,-0.588 -5.84942,-0.588 h -11.07844 z m 0,28.224 h 11.87609 q 3.45648,0 6.55844,-0.588 3.19059,-0.672 5.49491,-2.016 2.39294,-1.428 3.81098,-3.612 1.41804,-2.268 1.41804,-5.376 0,-5.88 -4.25412,-8.736 -4.16549,-2.94 -11.87609,-2.94 h -13.02825 z m -68.79438,5.208 h -7.00157 l 27.12003,-59.472 h 6.20393 l 26.94277,59.472 h -7.0902 l -6.91295,-15.624 h -32.43768 z m 9.21727,-21.168 h 27.6518 l -13.8259,-31.584 z m -47.57222,15.792 h 29.24709 v 5.376 h -35.62828 v -59.472 h 6.38119 z m -92.23913,-54.096 h 6.38118 v 25.788 h 34.21024 v -25.788 h 6.38118 v 59.472 h -6.38118 v -28.14 h -34.21024 v 28.14 h -6.38118 z m -11.05213,49.896 q -1.5953,2.268 -3.89961,4.284 -2.21569,2.016 -5.22903,3.528 -2.92471,1.512 -6.55844,2.352 -3.5451,0.924 -7.79922,0.924 -7.09021,0 -13.11688,-2.352 -6.02667,-2.352 -10.36942,-6.468 -4.34276,-4.2 -6.82433,-9.912 -2.39294,-5.712 -2.39294,-12.516 0,-6.804 2.48157,-12.516 2.48157,-5.712 6.82432,-9.828 4.43138,-4.2 10.36943,-6.552 6.02667,-2.352 13.02825,-2.352 3.45647,0 6.73569,0.672 3.36785,0.672 6.29256,1.932 2.92471,1.176 5.31765,2.94 2.39295,1.68 3.98824,3.864 l -5.31765,3.696 q -0.97491,-1.428 -2.65883,-2.856 -1.59529,-1.428 -3.81098,-2.52 -2.21569,-1.092 -4.87452,-1.764 -2.5702,-0.672 -5.58354,-0.672 -6.1153,0 -10.98981,2.1 -4.78589,2.1 -8.15374,5.712 -3.36784,3.528 -5.1404,8.232 -1.77255,4.704 -1.77255,9.912 0,5.208 1.77255,9.912 1.86118,4.704 5.22903,8.316 3.36785,3.528 8.15374,5.628 4.87451,2.1 10.90118,2.1 5.40629,0 10.2808,-2.1 4.87452,-2.1 8.15374,-6.72 z m -99.58276,9.576 h -6.38118 v -59.472 h 18.43453 q 4.60864,0 8.50825,0.84 3.98824,0.84 6.82432,2.772 2.92471,1.848 4.52,4.872 1.5953,3.024 1.5953,7.392 0,3.276 -1.24079,5.964 -1.24078,2.688 -3.36784,4.704 -2.12706,1.932 -5.05177,3.108 -2.92471,1.176 -6.38119,1.512 l 18.34591,28.308 h -7.79923 l -17.371,-27.804 h -10.63531 z m 0,-33.012 h 11.07845 q 7.7106,0 11.87609,-2.604 4.1655,-2.688 4.1655,-7.98 0,-2.94 -1.15216,-4.956 -1.15216,-2.016 -3.19059,-3.276 -2.03844,-1.26 -4.96315,-1.848 -2.92471,-0.588 -6.46981,-0.588 h -11.34433 z m -68.79436,33.012 h -7.00158 l 27.12004,-59.472 h 6.20392 l 26.94278,59.472 h -7.0902 l -6.91295,-15.624 h -32.43769 z m 9.21727,-21.168 h 27.65179 l -13.8259,-31.584 z m -54.84246,15.792 h 33.58984 v 5.376 h -39.97102 v -59.472 h 38.90749 v 5.376 h -32.52631 v 20.496 h 30.39925 v 5.292 h -30.39925 z m -26.00803,-44.52 q -2.03843,-2.688 -5.22903,-4.284 -3.19059,-1.68 -7.71059,-1.68 -2.30432,0 -4.69726,0.672 -2.39295,0.672 -4.34275,2.1 -1.94981,1.344 -3.1906,3.444 -1.15215,2.1 -1.15215,4.956 0,2.856 1.15215,4.704 1.15216,1.848 3.01334,3.192 1.94981,1.26 4.34275,2.1 2.48157,0.84 5.1404,1.68 3.27922,1.008 6.55844,2.184 3.36784,1.176 6.02667,3.108 2.65883,1.848 4.34275,4.788 1.68393,2.856 1.68393,7.308 0,4.452 -1.86118,7.728 -1.77255,3.192 -4.69726,5.292 -2.83609,2.1 -6.55844,3.108 -3.63373,1.008 -7.35609,1.008 -2.83608,0 -5.67216,-0.588 -2.83609,-0.504 -5.40628,-1.596 -2.5702,-1.092 -4.78589,-2.772 -2.21569,-1.68 -3.89961,-3.864 l 5.4949,-3.864 q 2.03844,3.192 5.67217,5.376 3.72235,2.1 8.6855,2.1 2.39294,0 4.87451,-0.672 2.48157,-0.756 4.43138,-2.184 2.03843,-1.512 3.27922,-3.612 1.32941,-2.184 1.32941,-5.04 0,-3.108 -1.32941,-5.124 -1.24079,-2.1 -3.36785,-3.444 -2.12706,-1.428 -4.87451,-2.352 -2.74746,-0.924 -5.76079,-1.848 -3.10197,-0.924 -6.1153,-2.1 -3.01334,-1.176 -5.40629,-3.024 -2.39294,-1.932 -3.89961,-4.704 -1.41804,-2.772 -1.41804,-6.804 0,-4.284 1.77255,-7.392 1.86118,-3.108 4.78589,-5.124 2.92471,-2.016 6.46981,-2.94 3.5451,-0.924 7.00158,-0.924 6.38118,0 10.90119,2.184 4.52,2.1 6.82432,5.04 z m -76.46758,44.52 h 33.58984 v 5.376 h -39.97102 v -59.472 h 38.90749 v 5.376 h -32.52631 v 20.496 h 30.39925 v 5.292 h -30.39925 z m -53.14192,5.376 h -6.38118 v -59.472 h 18.43453 q 4.60863,0 8.50825,0.84 3.98824,0.84 6.82432,2.772 2.92471,1.848 4.52,4.872 1.5953,3.024 1.5953,7.392 0,3.276 -1.24079,5.964 -1.24078,2.688 -3.36784,4.704 -2.12706,1.932 -5.05177,3.108 -2.92471,1.176 -6.38119,1.512 l 18.34591,28.308 h -7.79923 l -17.371,-27.804 h -10.63531 z m 0,-33.012 h 11.07845 q 7.7106,0 11.87609,-2.604 4.1655,-2.688 4.1655,-7.98 0,-2.94 -1.15216,-4.956 -1.15216,-2.016 -3.19059,-3.276 -2.03844,-1.26 -4.96315,-1.848 -2.92471,-0.588 -6.46981,-0.588 H 325.94071 Z M 912.9652,326.174 H 899.21265 V 283.946 L 862.76838,228.47 h 16.77812 l 26.955,44.16 27.09253,-44.16 h 15.81544 l -36.44427,55.476 z m -80.23757,0 H 819.1126 V 240.476 H 787.89431 V 228.47 h 76.05162 v 12.006 h -31.2183 z m -57.82734,0 H 761.28526 V 228.47 h 13.61503 z m -84.34183,0 H 676.94343 V 228.47 h 31.2183 q 7.0138,0 13.33997,1.518 6.32618,1.38 11.00205,4.554 4.81339,3.174 7.5639,8.418 2.75051,5.106 2.75051,12.558 0,10.764 -6.60123,17.388 -6.60122,6.624 -17.05316,8.418 l 27.23005,44.85 h -16.50306 l -24.7546,-43.47 h -14.5777 z m 0,-54.924 h 15.67791 q 4.81339,0 8.93916,-0.828 4.12576,-0.828 7.15133,-2.622 3.16308,-1.932 4.95091,-4.83 1.78784,-3.036 1.78784,-7.452 0,-4.416 -1.78784,-7.314 -1.78783,-3.036 -4.81339,-4.83 -2.88804,-1.794 -6.87628,-2.484 -3.98824,-0.828 -8.38905,-0.828 h -16.64059 z m -74.52381,57.408 q -9.62678,0 -16.77811,-3.174 -7.15133,-3.312 -11.8272,-8.694 -4.67587,-5.382 -7.0138,-12.282 -2.20041,-7.038 -2.20041,-14.49 V 228.47 h 13.61503 v 60.72 q 0,4.968 1.23773,9.936 1.23773,4.83 3.98824,8.694 2.88804,3.864 7.42638,6.21 4.67587,2.346 11.55214,2.346 6.73875,0 11.41462,-2.346 4.67587,-2.346 7.42638,-6.21 2.88804,-3.864 4.12577,-8.694 1.23773,-4.968 1.23773,-9.936 v -60.72 h 13.61503 v 61.548 q 0,7.452 -2.33794,14.49 -2.20041,6.9 -6.87627,12.282 -4.67587,5.382 -11.8272,8.694 -7.15133,3.174 -16.77812,3.174 z m -51.15734,-17.664 q -5.77608,7.866 -14.99029,12.834 -9.21421,4.83 -22.14161,4.83 -11.13957,0 -20.62883,-3.726 -9.35174,-3.864 -16.22801,-10.626 -6.73875,-6.9 -10.58947,-16.284 -3.85071,-9.522 -3.85071,-20.838 0,-11.454 3.85071,-20.838 3.98824,-9.522 10.86452,-16.146 7.0138,-6.762 16.50306,-10.488 9.48926,-3.726 20.62883,-3.726 4.95092,0 10.03937,0.966 5.08844,0.966 9.76431,2.898 4.67587,1.932 8.52658,4.83 3.85072,2.76 6.60123,6.486 l -10.72699,8.28 q -3.57567,-4.968 -10.17689,-8.142 -6.4637,-3.312 -14.02761,-3.312 -8.52658,0 -15.40286,3.174 -6.73875,3.036 -11.55214,8.418 -4.8134,5.382 -7.42638,12.558 -2.61299,7.038 -2.61299,15.042 0,8.28 2.47546,15.456 2.61299,7.176 7.28886,12.558 4.81339,5.244 11.55214,8.28 6.87628,3.036 15.26534,3.036 8.25153,0 14.99028,-3.312 6.73875,-3.312 11.13957,-9.66 z m -152.59319,3.036 h 50.88445 v 12.144 H 398.66909 V 228.47 h 62.4366 v 12.006 h -48.82157 v 29.256 h 45.93353 v 11.73 h -45.93353 z m -43.36996,-67.482 q -2.88804,-4.002 -7.83896,-6.486 -4.95092,-2.622 -11.13956,-2.622 -3.30062,0 -6.73876,0.966 -3.30061,0.828 -6.05112,2.898 -2.75051,1.932 -4.53834,4.968 -1.65031,2.898 -1.65031,7.038 0,4.002 1.51278,6.762 1.65031,2.622 4.26329,4.554 2.75051,1.794 6.32618,3.174 3.71319,1.242 7.83895,2.622 4.95092,1.518 10.03937,3.45 5.08844,1.932 9.21421,5.106 4.12577,3.174 6.73875,8.004 2.61299,4.692 2.61299,12.006 0,7.59 -2.88804,13.248 -2.75051,5.52 -7.42638,9.246 -4.67587,3.588 -10.86452,5.382 -6.05112,1.794 -12.51482,1.794 -9.21421,0 -17.87832,-3.588 -8.52658,-3.588 -14.16513,-10.626 l 10.58947,-8.97 q 3.43813,5.106 9.21421,8.28 5.77607,3.174 12.51482,3.174 3.43814,0 6.87628,-0.966 3.43814,-0.966 6.18865,-3.036 2.88803,-2.07 4.67586,-5.106 1.78784,-3.174 1.78784,-7.59 0,-4.416 -1.92536,-7.314 -1.78783,-3.036 -4.95092,-5.106 -3.16309,-2.07 -7.42638,-3.45 -4.12577,-1.518 -8.80163,-3.036 -4.67587,-1.38 -9.21421,-3.312 -4.53835,-2.07 -8.11401,-5.106 -3.57567,-3.174 -5.77607,-7.728 -2.20041,-4.554 -2.20041,-11.316 0,-7.314 2.88803,-12.558 3.02557,-5.244 7.70143,-8.694 4.8134,-3.45 10.727,-4.968 6.05112,-1.656 12.10224,-1.656 8.52659,0 15.95297,3.036 7.42637,3.036 11.96472,8.142 z M 931.02204,126.303 q -3.05621,-4.002 -8.29542,-6.486 -5.23921,-2.622 -11.78823,-2.622 -3.4928,0 -7.13115,0.966 -3.4928,0.828 -6.40348,2.898 -2.91067,1.932 -4.80261,4.968 -1.7464,2.898 -1.7464,7.038 0,4.002 1.60087,6.762 1.7464,2.622 4.51154,4.554 2.91068,1.794 6.69455,3.174 3.92941,1.242 8.29542,2.622 5.23921,1.518 10.62395,3.45 5.38475,1.932 9.75076,5.106 4.36601,3.174 7.13115,8.004 2.76514,4.692 2.76514,12.006 0,7.59 -3.05621,13.248 -2.91067,5.52 -7.85882,9.246 -4.94814,3.588 -11.49715,5.382 -6.40349,1.794 -13.24357,1.794 -9.75075,0 -18.91937,-3.588 -9.02309,-3.588 -14.98997,-10.626 l 11.20609,-8.97 q 3.63835,5.106 9.75076,8.28 6.11241,3.174 13.24356,3.174 3.63834,0 7.27668,-0.966 3.63834,-0.966 6.54902,-3.036 3.0562,-2.07 4.94814,-5.106 1.89194,-3.174 1.89194,-7.59 0,-4.416 -2.03747,-7.314 -1.89194,-3.036 -5.23921,-5.106 -3.34728,-2.07 -7.85882,-3.45 -4.36601,-1.518 -9.31415,-3.036 -4.94815,-1.38 -9.75076,-3.312 -4.80261,-2.07 -8.58648,-5.106 -3.78388,-3.174 -6.11242,-7.728 -2.32854,-4.554 -2.32854,-11.316 0,-7.314 3.05621,-12.558 3.20174,-5.244 8.14989,-8.694 5.09367,-3.45 11.35162,-4.968 6.40348,-1.656 12.80696,-1.656 9.02309,0 16.8819,3.036 7.85882,3.036 12.66143,8.142 z m -129.28391,56.994 h 0.29106 l 30.41654,-75.072 h 22.41218 v 97.704 h -14.40783 v -81.696 h -0.29107 l -34.20041,81.696 h -9.16862 l -34.05487,-81.696 h -0.29107 v 81.696 h -13.97123 v -97.704 h 22.41218 z m -126.40507,10.488 h 53.84745 v 12.144 h -68.25528 v -97.704 h 66.07228 v 12.006 h -51.66445 v 29.256 h 48.60824 v 11.73 h -48.60824 z m -61.1241,12.144 h -14.40783 v -85.698 h -33.03614 v -12.006 h 80.48011 v 12.006 H 614.20896 Z M 546.5358,126.303 q -3.0562,-4.002 -8.29541,-6.486 -5.23922,-2.622 -11.78823,-2.622 -3.49281,0 -7.13115,0.966 -3.49281,0.828 -6.40348,2.898 -2.91067,1.932 -4.80261,4.968 -1.7464,2.898 -1.7464,7.038 0,4.002 1.60087,6.762 1.7464,2.622 4.51154,4.554 2.91067,1.794 6.69455,3.174 3.92941,1.242 8.29542,2.622 5.23921,1.518 10.62395,3.45 5.38475,1.932 9.75076,5.106 4.36601,3.174 7.13114,8.004 2.76514,4.692 2.76514,12.006 0,7.59 -3.0562,13.248 -2.91068,5.52 -7.85882,9.246 -4.94814,3.588 -11.49716,5.382 -6.40348,1.794 -13.24356,1.794 -9.75075,0 -18.91937,-3.588 -9.02309,-3.588 -14.98997,-10.626 l 11.20609,-8.97 q 3.63834,5.106 9.75076,8.28 6.11241,3.174 13.24356,3.174 3.63834,0 7.27668,-0.966 3.63834,-0.966 6.54901,-3.036 3.05621,-2.07 4.94815,-5.106 1.89194,-3.174 1.89194,-7.59 0,-4.416 -2.03748,-7.314 -1.89193,-3.036 -5.23921,-5.106 -3.34727,-2.07 -7.85881,-3.45 -4.36601,-1.518 -9.31416,-3.036 -4.94814,-1.38 -9.75075,-3.312 -4.80261,-2.07 -8.58649,-5.106 -3.78387,-3.174 -6.11241,-7.728 -2.32854,-4.554 -2.32854,-11.316 0,-7.314 3.05621,-12.558 3.20174,-5.244 8.14988,-8.694 5.09368,-3.45 11.35163,-4.968 6.40348,-1.656 12.80696,-1.656 9.02308,0 16.8819,3.036 7.85882,3.036 12.66143,8.142 z m -105.09348,79.626 h -14.55337 v -42.228 l -38.56641,-55.476 h 17.7551 l 28.5246,44.16 28.67012,-44.16 h 16.73637 l -38.56641,55.476 z m -68.52816,-79.626 q -3.05621,-4.002 -8.29542,-6.486 -5.23921,-2.622 -11.78822,-2.622 -3.49281,0 -7.13115,0.966 -3.49281,0.828 -6.40348,2.898 -2.91068,1.932 -4.80261,4.968 -1.74641,2.898 -1.74641,7.038 0,4.002 1.60087,6.762 1.74641,2.622 4.51155,4.554 2.91067,1.794 6.69454,3.174 3.92941,1.242 8.29542,2.622 5.23921,1.518 10.62396,3.45 5.38474,1.932 9.75075,5.106 4.36601,3.174 7.13115,8.004 2.76514,4.692 2.76514,12.006 0,7.59 -3.05621,13.248 -2.91067,5.52 -7.85881,9.246 -4.94815,3.588 -11.49716,5.382 -6.40348,1.794 -13.24356,1.794 -9.75076,0 -18.91938,-3.588 -9.02308,-3.588 -14.98996,-10.626 l 11.20609,-8.97 q 3.63834,5.106 9.75075,8.28 6.11242,3.174 13.24356,3.174 3.63835,0 7.27669,-0.966 3.63834,-0.966 6.54901,-3.036 3.05621,-2.07 4.94815,-5.106 1.89193,-3.174 1.89193,-7.59 0,-4.416 -2.03747,-7.314 -1.89194,-3.036 -5.23921,-5.106 -3.34727,-2.07 -7.85882,-3.45 -4.36601,-1.518 -9.31415,-3.036 -4.94814,-1.38 -9.75075,-3.312 -4.80262,-2.07 -8.58649,-5.106 -3.78388,-3.174 -6.11241,-7.728 -2.32854,-4.554 -2.32854,-11.316 0,-7.314 3.0562,-12.558 3.20175,-5.244 8.14989,-8.694 5.09368,-3.45 11.35162,-4.968 6.40348,-1.656 12.80696,-1.656 9.02309,0 16.88191,3.036 7.85882,3.036 12.66143,8.142 z m -224.34042,78.59585 18.90279,-13.511 c 0,0 -28.01634,-20.337 -29.10758,-40.373 -1.08625,-19.933 11.40166,-31.853 33.31506,-32.328 21.65729,-0.471 35.35901,10.495 35.19458,30.833 -0.16642,20.657 -33.96083,44.883 -44.35896,52.542 -10.39813,7.659 -23.58962,15.773 -39.19777,31.327 0,0 -9.69953,10.145 -14.94843,23.898 -5.24889,13.753 -3.42717,29.958 -3.42717,29.958 0,0 48.5226,3.048 71.79431,2.527 23.13219,-0.518 38.71443,-1.019 38.71443,-1.019 0,0 -12.61149,23.466 -38.88983,24.053 -26.27834,0.587 -38.8679,-18.451 -38.8679,-18.451 l -32.27466,-1.824 c 0,0 17.15582,42.461 67.08755,42.706 50.83761,0.249 71.27411,-47.059 71.27411,-47.059 l 11.37874,-1.283 c 0,0 0.8122,-5.424 0.36674,-11.858 -0.45643,-6.599 -2.40272,-11.293 -2.40272,-11.293 0,0 -47.42139,4.109 -76.36254,3.453 -27.97848,-0.634 -46.77862,-1.84 -46.77862,-1.84 0,0 4.74164,-11.267 18.03478,-23.977 13.95187,-13.339 24.0002,-18.182 24.0002,-18.182 0,0 18.74832,12.624 33.02905,28.046 7.69445,8.309 8.4927,10.265 8.4927,10.265 l 28.19473,-1.519 c 0,0 -6.40291,-8.308 -15.89217,-19.558 -9.49026,-11.25 -32.97026,-31.965 -32.97026,-31.965 0,0 36.56187,-30.576 37.05516,-61.262 0.53117,-33.089 -26.58627,-52.278 -57.64113,-52.296 -30.97813,-0.017 -58.12846,21.947 -58.16035,51.819 -0.0209,20.266 9.66765,32.278 13.46953,37.449 6.66799,9.07 20.97563,20.722 20.97563,20.722 z" />
        </g>
    </g>
</svg>
